<svg width="30" height="30" viewBox="0 0 30 30" fill="none" xmlns="http://www.w3.org/2000/svg">
<path d="M15 0.669744C11.0638 0.629745 7.27279 2.15421 4.46009 4.9081C1.64739 7.66198 0.043173 11.42 0 15.3561C0.0151669 18.4668 1.01583 21.4926 2.85827 23.999C4.7007 26.5054 7.2901 28.3634 10.2545 29.3061C11.0045 29.4425 11.2773 28.9925 11.2773 28.597C11.2773 28.2016 11.2773 27.3288 11.2773 26.1016C7.10455 26.9879 6.21818 24.1379 6.21818 24.1379C5.9404 23.2432 5.34986 22.4784 4.55455 21.9834C3.19091 21.0834 4.66364 21.097 4.66364 21.097C5.13498 21.16 5.58594 21.3289 5.9827 21.5911C6.37945 21.8532 6.71171 22.2018 6.95455 22.6107C7.37773 23.3445 8.07209 23.8828 8.8882 24.1098C9.7043 24.3367 10.5769 24.2342 11.3182 23.8243C11.3944 23.0775 11.7326 22.3819 12.2727 21.8607C8.94545 21.4925 5.45455 20.2379 5.45455 14.6061C5.42479 13.137 5.9676 11.714 6.96818 10.6379C6.51249 9.37666 6.5663 7.98744 7.11818 6.7652C7.11818 6.7652 8.38636 6.36974 11.2091 8.2652C13.6662 7.61043 16.252 7.61043 18.7091 8.2652C21.5727 6.36974 22.8 6.7652 22.8 6.7652C23.3519 7.98744 23.4057 9.37666 22.95 10.6379C23.9738 11.6943 24.5461 13.1078 24.5455 14.5788C24.5455 20.2243 21.0273 21.4652 17.7273 21.8334C18.0886 22.1842 18.3677 22.6107 18.5446 23.0823C18.7214 23.5539 18.7916 24.0587 18.75 24.5607V28.5834C18.75 28.5834 19.0227 29.4425 19.7727 29.2925C22.7288 28.3439 25.3094 26.4855 27.1462 23.9827C28.9829 21.4798 29.9817 18.4605 30 15.3561C29.9568 11.42 28.3526 7.66198 25.5399 4.9081C22.7272 2.15421 18.9362 0.629745 15 0.669744Z" fill="#CABFAB"/>
</svg>
