<svg width="30" height="24" viewBox="0 0 30 24" fill="none" xmlns="http://www.w3.org/2000/svg">
<path d="M26.25 0.214279H3.75C2.75576 0.215343 1.80256 0.610772 1.09952 1.3138C0.396493 2.01683 0.00106354 2.97004 0 3.96428V20.0357C0.00106354 21.0299 0.396493 21.9832 1.09952 22.6862C1.80256 23.3892 2.75576 23.7846 3.75 23.7857H26.25C27.2442 23.7846 28.1974 23.3892 28.9005 22.6862C29.6035 21.9832 29.9989 21.0299 30 20.0357V3.96428C29.9989 2.97004 29.6035 2.01683 28.9005 1.3138C28.1974 0.610772 27.2442 0.215343 26.25 0.214279ZM25.3004 6.41718L15.6576 13.9172C15.4696 14.0634 15.2382 14.1427 15 14.1427C14.7618 14.1427 14.5304 14.0634 14.3424 13.9172L4.69955 6.41718C4.58626 6.33162 4.4911 6.2244 4.4196 6.10175C4.3481 5.9791 4.30169 5.84346 4.28307 5.70271C4.26445 5.56197 4.27398 5.41893 4.31112 5.2819C4.34825 5.14487 4.41225 5.01659 4.4994 4.90451C4.58654 4.79243 4.69509 4.69879 4.81874 4.62903C4.94238 4.55926 5.07866 4.51476 5.21965 4.49812C5.36065 4.48148 5.50354 4.49303 5.64003 4.53209C5.77652 4.57115 5.90389 4.63695 6.01473 4.72566L15 11.7141L23.9853 4.72566C24.2099 4.55599 24.4924 4.48157 24.7715 4.51851C25.0506 4.55544 25.304 4.70075 25.4768 4.92302C25.6496 5.14529 25.728 5.42665 25.695 5.70626C25.662 5.98587 25.5203 6.24125 25.3004 6.41718Z" fill="#CABFAB"/>
</svg>
